<?xml version="1.0" encoding="UTF-8" standalone="no" ?>
<!DOCTYPE svg PUBLIC "-//W3C//DTD SVG 1.1//EN" "http://www.w3.org/Graphics/SVG/1.1/DTD/svg11.dtd">
<svg xmlns="http://www.w3.org/2000/svg" xmlns:xlink="http://www.w3.org/1999/xlink" version="1.1" width="1080" height="1080" viewBox="0 0 1080 1080" xml:space="preserve">
<desc>Created with Fabric.js 5.2.4</desc>
<defs>
</defs>
<g transform="matrix(1 0 0 1 540 540)" id="f87b8a25-5621-4e22-94a8-31e1fce8f066"  >
<rect style="stroke: none; stroke-width: 1; stroke-dasharray: none; stroke-linecap: butt; stroke-dashoffset: 0; stroke-linejoin: miter; stroke-miterlimit: 4; fill: rgb(255,255,255); fill-rule: nonzero; opacity: 1; visibility: hidden;" vector-effect="non-scaling-stroke"  x="-540" y="-540" rx="0" ry="0" width="1080" height="1080" />
</g>
<g transform="matrix(1 0 0 1 540 540)" id="dbf276fe-32c7-4d14-926b-06f28053d852"  >
</g>
<g transform="matrix(NaN NaN NaN NaN 0 0)"  >
<g style=""   >
</g>
</g>
<g transform="matrix(NaN NaN NaN NaN 0 0)"  >
<g style=""   >
</g>
</g>
<g transform="matrix(4.7 0 0 4.85 216.9 213.92)" id="path39880"  >
<path style="stroke: none; stroke-width: 1; stroke-dasharray: none; stroke-linecap: butt; stroke-dashoffset: 0; stroke-linejoin: miter; stroke-miterlimit: 4; fill: rgb(34,49,78); fill-rule: nonzero; opacity: 1;" vector-effect="non-scaling-stroke"  transform=" translate(68.07, 97.8)" d="M -48.357 -97.8 C -48.357 -86.913 -57.184 -78.08699999999999 -68.071 -78.08699999999999 C -78.957 -78.08699999999999 -87.783 -86.91299999999998 -87.783 -97.79999999999998 C -87.783 -108.68499999999999 -78.956 -117.51299999999998 -68.071 -117.51299999999998 C -57.184 -117.513 -48.357 -108.685 -48.357 -97.8 z" stroke-linecap="round" />
</g>
<g transform="matrix(4.7 0 0 4.85 216.9 540)" id="path39882"  >
<path style="stroke: none; stroke-width: 1; stroke-dasharray: none; stroke-linecap: butt; stroke-dashoffset: 0; stroke-linejoin: miter; stroke-miterlimit: 4; fill: rgb(34,49,78); fill-rule: nonzero; opacity: 1;" vector-effect="non-scaling-stroke"  transform=" translate(68.07, 30.62)" d="M -48.357 -30.621 C -48.357 -19.733999999999998 -57.184 -10.907999999999998 -68.071 -10.907999999999998 C -78.957 -10.907999999999998 -87.783 -19.733999999999998 -87.783 -30.621 C -87.783 -41.507999999999996 -78.956 -50.334 -68.071 -50.334 C -57.184 -50.334 -48.357 -41.508 -48.357 -30.621 z" stroke-linecap="round" />
</g>
<g transform="matrix(4.7 0 0 4.85 216.9 866.08)" id="path39884"  >
<path style="stroke: none; stroke-width: 1; stroke-dasharray: none; stroke-linecap: butt; stroke-dashoffset: 0; stroke-linejoin: miter; stroke-miterlimit: 4; fill: rgb(34,49,78); fill-rule: nonzero; opacity: 1;" vector-effect="non-scaling-stroke"  transform=" translate(68.07, -36.56)" d="M -48.357 36.559 C -48.357 47.443999999999996 -57.184 56.272 -68.071 56.272 C -78.957 56.272 -87.783 47.444 -87.783 36.559 C -87.783 25.674 -78.956 16.845999999999997 -68.071 16.845999999999997 C -57.184 16.846 -48.357 25.673 -48.357 36.559 z" stroke-linecap="round" />
</g>
<g transform="matrix(4.7 0 0 4.85 540 540)" id="path39886"  >
<path style="stroke: none; stroke-width: 1; stroke-dasharray: none; stroke-linecap: butt; stroke-dashoffset: 0; stroke-linejoin: miter; stroke-miterlimit: 4; fill: rgb(34,49,78); fill-rule: nonzero; opacity: 1;" vector-effect="non-scaling-stroke"  transform=" translate(-0.72, 30.62)" d="M 20.432 -30.621 C 20.432 -19.733999999999998 11.604999999999999 -10.907999999999998 0.718 -10.907999999999998 C -10.168 -10.907999999999998 -18.994 -19.733999999999998 -18.994 -30.621 C -18.994 -41.507999999999996 -10.167 -50.334 0.718 -50.334 C 11.605 -50.334 20.432 -41.508 20.432 -30.621 z" stroke-linecap="round" />
</g>
<g transform="matrix(4.7 0 0 4.85 540 213.92)" id="path39888"  >
<path style="stroke: none; stroke-width: 1; stroke-dasharray: none; stroke-linecap: butt; stroke-dashoffset: 0; stroke-linejoin: miter; stroke-miterlimit: 4; fill: rgb(34,49,78); fill-rule: nonzero; opacity: 1;" vector-effect="non-scaling-stroke"  transform=" translate(-0.72, 97.8)" d="M 20.432 -97.8 C 20.432 -86.913 11.604999999999999 -78.08699999999999 0.718 -78.08699999999999 C -10.168 -78.08699999999999 -18.994 -86.91299999999998 -18.994 -97.79999999999998 C -18.994 -108.68499999999999 -10.167 -117.51299999999998 0.718 -117.51299999999998 C 11.605 -117.513 20.432 -108.685 20.432 -97.8 z" stroke-linecap="round" />
</g>
<g transform="matrix(4.7 0 0 4.85 863.1 540)" id="path39890"  >
<path style="stroke: none; stroke-width: 1; stroke-dasharray: none; stroke-linecap: butt; stroke-dashoffset: 0; stroke-linejoin: miter; stroke-miterlimit: 4; fill: rgb(34,49,78); fill-rule: nonzero; opacity: 1;" vector-effect="non-scaling-stroke"  transform=" translate(-69.51, 30.62)" d="M 89.22 -30.621 C 89.22 -19.733999999999998 80.393 -10.907999999999998 69.506 -10.907999999999998 C 58.620000000000005 -10.907999999999998 49.794 -19.733999999999998 49.794 -30.621 C 49.794 -41.507999999999996 58.620999999999995 -50.334 69.506 -50.334 C 80.394 -50.334 89.22 -41.508 89.22 -30.621 z" stroke-linecap="round" />
</g>
<g transform="matrix(4.7 0 0 4.85 863.1 213.92)" id="path39892"  >
<path style="stroke: none; stroke-width: 1; stroke-dasharray: none; stroke-linecap: butt; stroke-dashoffset: 0; stroke-linejoin: miter; stroke-miterlimit: 4; fill: rgb(34,49,78); fill-rule: nonzero; opacity: 1;" vector-effect="non-scaling-stroke"  transform=" translate(-69.51, 97.8)" d="M 89.22 -97.8 C 89.22 -86.913 80.393 -78.08699999999999 69.506 -78.08699999999999 C 58.620000000000005 -78.08699999999999 49.794 -86.91299999999998 49.794 -97.79999999999998 C 49.794 -108.68499999999999 58.620999999999995 -117.51299999999998 69.506 -117.51299999999998 C 80.394 -117.513 89.22 -108.685 89.22 -97.8 z" stroke-linecap="round" />
</g>
<g transform="matrix(4.7 0 0 4.85 863.1 866.08)" id="path39894"  >
<path style="stroke: none; stroke-width: 1; stroke-dasharray: none; stroke-linecap: butt; stroke-dashoffset: 0; stroke-linejoin: miter; stroke-miterlimit: 4; fill: rgb(34,49,78); fill-rule: nonzero; opacity: 1;" vector-effect="non-scaling-stroke"  transform=" translate(-69.51, -36.56)" d="M 89.22 36.559 C 89.22 47.443999999999996 80.393 56.272 69.506 56.272 C 58.620000000000005 56.272 49.794 47.444 49.794 36.559 C 49.794 25.674 58.620999999999995 16.845999999999997 69.506 16.845999999999997 C 80.394 16.846 89.22 25.673 89.22 36.559 z" stroke-linecap="round" />
</g>
<g transform="matrix(4.7 0 0 4.85 540 866.08)" id="path39896"  >
<path style="stroke: none; stroke-width: 1; stroke-dasharray: none; stroke-linecap: butt; stroke-dashoffset: 0; stroke-linejoin: miter; stroke-miterlimit: 4; fill: rgb(34,49,78); fill-rule: nonzero; opacity: 1;" vector-effect="non-scaling-stroke"  transform=" translate(-0.72, -36.56)" d="M 20.432 36.559 C 20.432 47.443999999999996 11.604999999999999 56.272 0.718 56.272 C -10.168 56.272 -18.994 47.444 -18.994 36.559 C -18.994 25.674 -10.167 16.845999999999997 0.718 16.845999999999997 C 11.605 16.846 20.432 25.673 20.432 36.559 z" stroke-linecap="round" />
</g>
</svg>